<?xml version="1.0" standalone="no"?>
<!DOCTYPE svg PUBLIC "-//W3C//DTD SVG 20010904//EN"
 "http://www.w3.org/TR/2001/REC-SVG-20010904/DTD/svg10.dtd">
<svg version="1.0" xmlns="http://www.w3.org/2000/svg"
 width="512.000000pt" height="512.000000pt" viewBox="0 0 512.000000 512.000000"
 preserveAspectRatio="xMidYMid meet">

<g transform="translate(0.000000,512.000000) scale(0.100000,-0.100000)"
fill="#000000" stroke="none">
<path d="M2410 4919 c-952 -51 -1789 -583 -2181 -1383 -276 -565 -302 -1200
-73 -1786 115 -295 284 -549 524 -790 455 -457 1056 -722 1724 -759 656 -37
1281 153 1799 546 124 94 337 306 432 428 421 547 577 1226 430 1871 -264
1148 -1389 1942 -2655 1873z m455 -219 c293 -34 639 -142 878 -275 183 -103
177 -97 177 -159 0 -75 -8 -80 -159 -87 -140 -6 -180 -19 -237 -81 -47 -49
-61 -84 -94 -231 -35 -157 -34 -148 -14 -216 26 -90 73 -130 291 -248 63 -34
93 -44 131 -45 64 -2 96 12 214 89 106 69 145 118 155 193 4 31 9 39 22 36 45
-14 245 -56 310 -66 41 -6 77 -13 82 -15 21 -14 178 -341 167 -350 -2 -1 -37
6 -78 16 -41 10 -137 28 -214 39 -147 22 -231 19 -322 -13 -168 -60 -311 -195
-382 -363 -37 -88 -104 -436 -105 -544 -4 -419 405 -692 824 -550 148 50 169
35 169 -121 l0 -89 -57 -96 c-217 -362 -548 -662 -948 -860 -303 -149 -584
-226 -935 -254 -215 -18 -599 9 -592 41 2 7 69 138 148 290 108 206 147 291
155 335 12 68 28 104 49 115 8 4 53 26 100 47 115 53 143 78 193 182 35 73 53
97 112 149 38 33 81 79 96 101 70 105 54 252 -37 341 -19 19 -117 77 -216 129
l-182 95 -38 70 c-80 149 -143 196 -312 234 l-89 19 -71 76 c-110 117 -119
119 -416 126 l-244 5 -76 90 c-41 49 -134 151 -207 225 -123 126 -163 181
-163 227 0 9 9 36 21 60 17 35 32 48 85 74 39 19 79 32 103 32 21 0 109 -20
195 -43 l157 -44 50 -93 c56 -104 95 -147 154 -174 113 -52 256 8 307 128 7
17 12 81 13 162 l0 135 70 47 c115 78 188 165 255 304 32 66 68 152 80 190 54
178 31 383 -63 560 l-34 64 66 4 c94 6 350 -1 456 -13z m-666 -164 c73 -143
78 -300 16 -457 -70 -178 -114 -238 -234 -319 -145 -97 -165 -139 -160 -324 4
-112 3 -121 -14 -121 -13 0 -34 27 -68 90 -28 52 -68 107 -94 131 -41 38 -57
45 -227 92 -230 65 -250 68 -325 48 -224 -57 -346 -190 -346 -376 -1 -116 27
-167 168 -310 64 -64 164 -175 223 -246 94 -113 115 -133 172 -161 l65 -33
223 0 c257 0 265 -2 325 -81 53 -69 114 -104 227 -130 52 -12 106 -27 120 -34
15 -8 47 -52 80 -110 32 -56 70 -109 90 -125 19 -15 113 -67 208 -115 178 -89
202 -109 187 -155 -3 -9 -44 -52 -92 -96 -65 -59 -93 -92 -114 -139 -16 -33
-29 -65 -29 -71 0 -20 -45 -52 -109 -78 -161 -65 -216 -127 -240 -272 -8 -46
-45 -126 -167 -359 -86 -165 -158 -301 -159 -303 -10 -12 -424 139 -483 176
-10 7 -8 36 8 146 26 181 26 238 -4 301 -30 66 -87 116 -182 159 -108 50 -149
87 -262 239 l-100 132 -5 241 c-3 133 -2 246 2 252 3 5 30 19 59 30 75 29 116
63 146 124 29 58 32 110 16 236 -15 111 -44 157 -156 241 -157 117 -259 155
-444 166 -146 8 -270 25 -270 37 0 24 44 181 75 268 87 247 216 467 396 675
321 373 783 643 1289 755 l75 17 42 -40 c23 -22 55 -67 72 -101z m2026 -449
c86 -80 230 -236 223 -243 -2 -2 -56 8 -120 22 -112 25 -118 25 -171 10 -84
-24 -157 -116 -157 -197 0 -16 -134 -113 -155 -112 -20 1 -223 124 -229 138
-7 20 43 233 59 249 9 9 53 15 134 18 104 4 127 9 175 32 58 28 109 83 127
136 6 17 15 30 20 28 4 -2 47 -38 94 -81z m287 -1002 c79 -13 190 -37 248 -52
l104 -28 12 -60 c55 -269 41 -653 -34 -913 l-18 -63 -24 27 c-14 15 -47 37
-75 50 -72 34 -140 32 -251 -8 -78 -29 -101 -32 -189 -32 -135 0 -197 24 -281
108 -121 121 -133 215 -66 534 44 209 60 249 139 333 49 53 127 98 198 115 70
17 77 17 237 -11z m-4067 -365 c172 -1 269 -32 397 -129 l66 -50 7 -75 c4 -42
5 -82 2 -90 -3 -8 -28 -21 -55 -30 -64 -22 -124 -74 -153 -134 -23 -46 -23
-52 -20 -325 2 -211 6 -289 17 -320 19 -55 202 -294 284 -371 47 -44 95 -76
163 -110 77 -37 98 -53 103 -73 7 -24 -15 -233 -23 -233 -14 0 -197 134 -271
199 -243 211 -406 420 -541 692 -144 288 -211 576 -211 899 0 189 -4 180 83
164 40 -7 108 -13 152 -14z"/>
<path d="M4345 1660 c-30 -12 -205 -215 -214 -247 -10 -41 -3 -68 25 -97 35
-34 75 -41 116 -21 37 19 185 180 207 225 39 81 -50 175 -134 140z"/>
<path d="M3846 1200 c-385 -263 -740 -392 -1204 -439 -147 -15 -182 -38 -182
-118 0 -43 25 -78 67 -94 42 -16 294 14 488 57 278 63 542 168 775 307 115 69
246 163 265 189 31 45 12 119 -36 144 -50 25 -80 17 -173 -46z"/>
</g>
</svg>
